<?xml version="1.0" ?><!DOCTYPE svg  PUBLIC '-//W3C//DTD SVG 1.1//EN'  'http://www.w3.org/Graphics/SVG/1.1/DTD/svg11.dtd'><svg height="512pt" version="1.1" viewBox="0,0,512,512" width="512pt" xmlns="http://www.w3.org/2000/svg" xmlns:inkpad="http://taptrix.com/inkpad/svg_extensions" xmlns:xlink="http://www.w3.org/1999/xlink"><defs/><g id="Layer" visibility="hidden"><path d="M-0.827082-1.30128L512.173-1.30128L512.173+510.699L-0.827082+510.699L-0.827082-1.30128Z" fill="#000000" opacity="0.0523256"/></g><g id="Layer_2" visibility="hidden"><path d="M13.7104+99.6184L497.648+99.6184C503.154+99.6184+507.618+104.082+507.618+109.589L507.618+399.809C507.618+405.315+503.154+409.779+497.648+409.779L13.7104+409.779C8.20402+409.779+3.74021+405.315+3.74021+399.809L3.74021+109.589C3.74021+104.082+8.20402+99.6184+13.7104+99.6184Z" fill="none" opacity="1" stroke="#000000" stroke-linejoin="round" stroke-width="5"/></g><g id="Layer_3" visibility="hidden"><path d="M160+208L448+208" fill="none" opacity="1" stroke="#000000" stroke-linejoin="round" stroke-width="5"/><path d="M160+160L448+160" fill="none" opacity="1" stroke="#000000" stroke-linejoin="round" stroke-width="5"/><path d="M4.56918+320L506.789+320" fill="none" opacity="1" stroke="#000000" stroke-linejoin="round" stroke-width="5"/><path d="M160+256L448+256" fill="none" opacity="1" stroke="#000000" stroke-linejoin="round" stroke-width="5"/></g><g id="Layer_4" visibility="hidden"><text fill="#000000" font-family="'HelveticaNeue'" font-size="55" opacity="1" text-anchor="start" transform="matrix(1 0 0 1 179.385 332.387)" x="0" y="0"><tspan textLength="113.025" x="0" y="52"><![CDATA[Alert]]></tspan></text></g><g id="Layer_5" visibility="hidden"><g opacity="1"><path d="M80.1101+269.888C80.1101+261.081+87.2489+253.943+96.0551+253.943C104.861+253.943+112+261.081+112+269.888C112+278.694+104.861+285.832+96.0551+285.832C87.2489+285.832+80.1101+278.694+80.1101+269.888Z" fill="none" opacity="1" stroke="#000000" stroke-linejoin="round" stroke-width="5"/><path d="M96.0551+128C112+128+112+143.728+112+146.49L96.0551+239.484L96.0551+239.484L80.1101+146.49C80.1101+143.728+80.1101+128+96.0551+128Z" fill="none" opacity="1" stroke="#000000" stroke-linejoin="round" stroke-width="5"/></g></g><g id="Layer_6"><path d="M144.468+179.261C144.468+117.664+194.403+67.7291+256+67.7291C317.598+67.7291+367.532+117.664+367.532+179.261C367.532+240.859+317.598+290.793+256+290.793C194.403+290.793+144.468+240.859+144.468+179.261Z" fill="none" opacity="1" stroke="#000000" stroke-linejoin="round" stroke-width="5"/><path d="M256+4.67303C512.173+3.46425+406.36+256+406.36+256C406.36+256+283.033+506.209+252.949+506.209C222.866+506.209+98.7208+256+98.7208+256C98.7208+256-0.172913+5.88181+256+4.67303Z" fill="none" opacity="1" stroke="#000000" stroke-linejoin="round" stroke-width="5"/></g></svg>